<svg width="162" height="81" viewBox="0 0 162 81" fill="none" xmlns="http://www.w3.org/2000/svg">
<path id="Ellipse 2" opacity="0.15" d="M155.793 81C159.107 81 161.816 78.3101 161.571 75.0054C160.934 66.4207 158.932 57.9793 155.628 50.0026C151.557 40.1753 145.591 31.2459 138.069 23.7243C130.547 16.2028 121.618 10.2364 111.791 6.16576C101.963 2.09513 91.4304 -4.64961e-07 80.7933 0C70.1562 4.64961e-07 59.6233 2.09513 49.796 6.16576C39.9686 10.2364 31.0392 16.2028 23.5177 23.7244C15.9961 31.2459 10.0297 40.1753 5.95908 50.0026C2.65504 57.9793 0.652509 66.4207 0.0154383 75.0054C-0.229798 78.3101 2.47961 81 5.79332 81L155.793 81Z" fill="#00BC5A"/>
</svg>
