<svg width="25" height="25" viewBox="0 0 25 25" fill="none" xmlns="http://www.w3.org/2000/svg">
<g id="fe:share">
<path id="Vector" fill-rule="evenodd" clip-rule="evenodd" d="M15.3392 15.4198C15.8367 14.9031 16.5029 14.5818 17.217 14.5141C17.9311 14.4463 18.6458 14.6367 19.2316 15.0507C19.8174 15.4646 20.2354 16.0748 20.41 16.7705C20.5846 17.4662 20.5041 18.2015 20.1832 18.843C19.8622 19.4845 19.3221 19.9897 18.6606 20.2672C17.9991 20.5446 17.2601 20.5759 16.5776 20.3553C15.8951 20.1347 15.3142 19.6768 14.9402 19.0647C14.5662 18.4526 14.424 17.7268 14.5392 17.0188L9.66617 14.5758C9.2519 15.0082 8.71771 15.3067 8.13236 15.4329C7.54701 15.5591 6.93728 15.5073 6.38163 15.2841C5.82599 15.0608 5.34987 14.6764 5.01453 14.1803C4.6792 13.6842 4.5 13.0991 4.5 12.5003C4.5 11.9015 4.6792 11.3164 5.01453 10.8203C5.34987 10.3242 5.82599 9.93981 6.38163 9.71658C6.93728 9.49335 7.54701 9.44151 8.13236 9.56773C8.71771 9.69395 9.2519 9.99246 9.66617 10.4248L14.5392 7.98183C14.424 7.27385 14.5662 6.54802 14.9402 5.93592C15.3142 5.32383 15.8951 4.86599 16.5776 4.64539C17.2601 4.4248 17.9991 4.45605 18.6606 4.7335C19.3221 5.01094 19.8622 5.5162 20.1832 6.15769C20.5041 6.79918 20.5846 7.53443 20.41 8.23015C20.2354 8.92588 19.8174 9.53603 19.2316 9.94999C18.6458 10.3639 17.9311 10.5543 17.217 10.4866C16.5029 10.4189 15.8367 10.0975 15.3392 9.58083L10.4622 12.0188C10.5135 12.3374 10.5135 12.6622 10.4622 12.9808L15.3392 15.4198ZM17.5002 8.49983C17.7654 8.49983 18.0197 8.39447 18.2073 8.20694C18.3948 8.0194 18.5002 7.76505 18.5002 7.49983C18.5002 7.23461 18.3948 6.98026 18.2073 6.79272C18.0197 6.60519 17.7654 6.49983 17.5002 6.49983C17.235 6.49983 16.9806 6.60519 16.7931 6.79272C16.6055 6.98026 16.5002 7.23461 16.5002 7.49983C16.5002 7.76505 16.6055 8.0194 16.7931 8.20694C16.9806 8.39447 17.235 8.49983 17.5002 8.49983ZM17.5002 18.4998C17.7654 18.4998 18.0197 18.3945 18.2073 18.2069C18.3948 18.0194 18.5002 17.765 18.5002 17.4998C18.5002 17.2346 18.3948 16.9803 18.2073 16.7927C18.0197 16.6052 17.7654 16.4998 17.5002 16.4998C17.235 16.4998 16.9806 16.6052 16.7931 16.7927C16.6055 16.9803 16.5002 17.2346 16.5002 17.4998C16.5002 17.765 16.6055 18.0194 16.7931 18.2069C16.9806 18.3945 17.235 18.4998 17.5002 18.4998ZM7.50017 13.4998C7.76539 13.4998 8.01974 13.3945 8.20728 13.2069C8.39481 13.0194 8.50017 12.765 8.50017 12.4998C8.50017 12.2346 8.39481 11.9803 8.20728 11.7927C8.01974 11.6052 7.76539 11.4998 7.50017 11.4998C7.23496 11.4998 6.9806 11.6052 6.79307 11.7927C6.60553 11.9803 6.50017 12.2346 6.50017 12.4998C6.50017 12.765 6.60553 13.0194 6.79307 13.2069C6.9806 13.3945 7.23496 13.4998 7.50017 13.4998Z" fill="black"/>
</g>
</svg>
